<svg width="61" height="61" viewBox="0 0 61 61" fill="none" xmlns="http://www.w3.org/2000/svg">
<g id="Icon" clip-path="url(#clip0_193_2064)">
<path id="Vector" d="M52.41 55.2258H49.41V41.6258C50.0766 41.4924 50.5766 41.1924 50.91 40.7258C51.2433 40.2591 51.41 39.6591 51.41 38.9258C51.41 38.1924 51.1433 37.5591 50.61 37.0258C50.0766 36.4924 49.41 36.2258 48.61 36.2258H43.21L40.81 19.4258C40.41 17.0258 39.2766 14.9258 37.41 13.1258C35.5433 11.3258 33.3433 10.3591 30.81 10.2258V7.42578L36.61 3.22578C37.2766 2.69245 37.4766 2.09245 37.21 1.42578C36.9433 0.759113 36.4766 0.425781 35.81 0.425781H30.01C29.7433 0.425781 29.5433 0.52578 29.41 0.72578C29.2766 0.925781 29.21 1.09245 29.21 1.22578V10.2258C28.5433 10.2258 27.9433 10.2924 27.41 10.4258C27.1433 10.4258 26.9766 10.5591 26.91 10.8258C26.8433 11.0924 26.81 11.3258 26.81 11.5258C26.81 11.7258 26.9433 11.8924 27.21 12.0258C27.4766 12.1591 27.6766 12.2258 27.81 12.2258C28.61 11.9591 29.3433 11.8258 30.01 11.8258C32.2766 11.8258 34.2766 12.5591 36.01 14.0258H24.01L25.21 13.2258C25.4766 13.0924 25.61 12.9258 25.61 12.7258C25.61 12.5258 25.5766 12.2924 25.51 12.0258C25.4433 11.7591 25.2766 11.6258 25.01 11.6258C24.7433 11.6258 24.4766 11.6924 24.21 11.8258C22.8766 12.6258 21.7766 13.6924 20.91 15.0258C20.0433 16.3591 19.4766 17.8258 19.21 19.4258L16.81 36.2258H11.41C10.61 36.2258 9.94329 36.4924 9.40996 37.0258C8.87663 37.5591 8.60996 38.1924 8.60996 38.9258C8.60996 39.6591 8.77663 40.2591 9.10996 40.7258C9.44329 41.1924 9.94329 41.4924 10.61 41.6258V55.2258H7.60996C7.20996 55.2258 6.87663 55.3591 6.60996 55.6258C6.34329 55.8924 6.20996 56.2258 6.20996 56.6258V57.8258C6.20996 58.4924 6.44329 59.0924 6.90996 59.6258C7.37663 60.1591 7.94329 60.4258 8.60996 60.4258H51.41C52.0766 60.4258 52.6433 60.1591 53.11 59.6258C53.5766 59.0924 53.81 58.4924 53.81 57.8258V56.6258C53.81 56.2258 53.6766 55.8924 53.41 55.6258C53.1433 55.3591 52.81 55.2258 52.41 55.2258ZM30.81 2.22578H35.01L30.81 5.22578V2.22578ZM39.01 19.8258L39.61 23.2258H38.01C37.7433 23.2258 37.5433 23.2924 37.41 23.4258C37.2766 23.5591 37.21 23.7591 37.21 24.0258C37.21 24.2924 37.2766 24.4924 37.41 24.6258C37.5433 24.7591 37.7433 24.8258 38.01 24.8258H39.81L40.81 31.0258H39.21C38.9433 31.0258 38.7433 31.0924 38.61 31.2258C38.4766 31.3591 38.41 31.5591 38.41 31.8258C38.41 32.0924 38.4766 32.3258 38.61 32.5258C38.7433 32.7258 38.9433 32.8258 39.21 32.8258H41.01L41.61 36.2258H36.21L34.61 19.8258H39.01ZM33.41 25.0258L34.01 31.0258H26.01L26.61 25.0258H33.41ZM26.81 23.2258L27.21 19.8258H32.81L33.21 23.2258H26.81ZM34.21 32.8258L34.61 36.2258H25.41L25.81 32.8258H34.21ZM22.41 15.8258H37.61C38.01 16.4924 38.3433 17.2258 38.61 18.0258H21.41C21.6766 17.2258 22.01 16.4924 22.41 15.8258ZM19.01 32.8258H20.81C21.0766 32.8258 21.2766 32.7258 21.41 32.5258C21.5433 32.3258 21.61 32.0924 21.61 31.8258C21.61 31.5591 21.5433 31.3591 21.41 31.2258C21.2766 31.0924 21.0766 31.0258 20.81 31.0258H19.21L20.21 24.8258H22.01C22.2766 24.8258 22.4766 24.7591 22.61 24.6258C22.7433 24.4924 22.81 24.2924 22.81 24.0258C22.81 23.7591 22.7433 23.5591 22.61 23.4258C22.4766 23.2924 22.2766 23.2258 22.01 23.2258H20.41L21.01 19.8258H25.41L23.81 36.2258H18.41L19.01 32.8258ZM10.41 39.0258C10.41 38.7591 10.51 38.5258 10.71 38.3258C10.91 38.1258 11.1433 38.0258 11.41 38.0258H48.61C48.8766 38.0258 49.11 38.1258 49.31 38.3258C49.51 38.5258 49.61 38.7591 49.61 39.0258C49.61 39.2924 49.51 39.5258 49.31 39.7258C49.11 39.9258 48.8766 40.0258 48.61 40.0258H38.21C37.9433 40.0258 37.71 40.1258 37.51 40.3258C37.31 40.5258 37.21 40.7591 37.21 41.0258C37.21 41.2924 37.31 41.4924 37.51 41.6258C37.71 41.7591 37.9433 41.8258 38.21 41.8258H39.01V55.2258H35.21V46.2258C35.21 45.5591 34.9766 45.0258 34.51 44.6258C34.0433 44.2258 33.5433 44.0258 33.01 44.0258H27.01C26.4766 44.0258 25.9766 44.2258 25.51 44.6258C25.0433 45.0258 24.81 45.5591 24.81 46.2258V55.2258H21.01V41.8258H34.61C34.8766 41.8258 35.11 41.7591 35.31 41.6258C35.51 41.4924 35.61 41.2924 35.61 41.0258C35.61 40.7591 35.51 40.5258 35.31 40.3258C35.11 40.1258 34.8766 40.0258 34.61 40.0258H11.41C11.1433 40.0258 10.91 39.9258 10.71 39.7258C10.51 39.5258 10.41 39.2924 10.41 39.0258ZM47.61 41.8258V55.2258H45.61V41.8258H47.61ZM40.81 51.8258V49.6258H43.81V51.8258H40.81ZM43.81 53.6258V55.2258H40.81V53.6258H43.81ZM40.81 48.0258V45.8258H43.81V48.0258H40.81ZM40.81 44.0258V41.8258H43.81V44.0258H40.81ZM33.41 46.2258V55.2258H26.61V46.2258C26.61 45.9591 26.7433 45.8258 27.01 45.8258H33.01C33.2766 45.8258 33.41 45.9591 33.41 46.2258ZM16.21 51.8258V49.6258H19.21V51.8258H16.21ZM19.21 53.6258V55.2258H16.21V53.6258H19.21ZM16.21 48.0258V45.8258H19.21V48.0258H16.21ZM16.21 44.0258V41.8258H19.21V44.0258H16.21ZM14.41 41.8258V55.2258H12.41V41.8258H14.41ZM52.01 57.8258C52.01 58.0924 51.9433 58.2924 51.81 58.4258C51.6766 58.5591 51.5433 58.6258 51.41 58.6258H8.60996C8.47663 58.6258 8.34329 58.5591 8.20996 58.4258C8.07663 58.2924 8.00996 58.0924 8.00996 57.8258V57.0258H52.01V57.8258Z" fill="white"/>
</g>
<defs>
<clipPath id="clip0_193_2064">
<rect width="60.02" height="60" fill="white" transform="matrix(1 0 0 -1 0 60.4258)"/>
</clipPath>
</defs>
</svg>
