<svg width="26" height="30" viewBox="0 0 36 37" fill="none" xmlns="http://www.w3.org/2000/svg">
  <g id="bi:cart" clip-path="url(#clip0_593_7326)">
    <path id="Vector" d="M0 3.875C0 3.57663 0.118526 3.29048 0.329505 3.0795C0.540483 2.86853 0.826631 2.75 1.125 2.75H4.5C4.75095 2.75007 4.99466 2.83404 5.1924 2.98856C5.39013 3.14307 5.53052 3.35926 5.59125 3.60275L6.5025 7.25H32.625C32.7902 7.25015 32.9533 7.28668 33.1028 7.35699C33.2523 7.4273 33.3844 7.52966 33.4899 7.65681C33.5953 7.78396 33.6715 7.93276 33.713 8.09266C33.7544 8.25257 33.7601 8.41963 33.7298 8.582L30.3547 26.582C30.3065 26.8398 30.1697 27.0726 29.968 27.2403C29.7662 27.4079 29.5123 27.4998 29.25 27.5H9C8.73772 27.4998 8.48377 27.4079 8.28205 27.2403C8.08033 27.0726 7.94351 26.8398 7.89525 26.582L4.5225 8.61575L3.6225 5H1.125C0.826631 5 0.540483 4.88147 0.329505 4.6705C0.118526 4.45952 0 4.17337 0 3.875ZM6.9795 9.5L9.93375 25.25H28.3162L31.2705 9.5H6.9795ZM11.25 27.5C10.0565 27.5 8.91193 27.9741 8.06802 28.818C7.22411 29.6619 6.75 30.8065 6.75 32C6.75 33.1935 7.22411 34.3381 8.06802 35.182C8.91193 36.0259 10.0565 36.5 11.25 36.5C12.4435 36.5 13.5881 36.0259 14.432 35.182C15.2759 34.3381 15.75 33.1935 15.75 32C15.75 30.8065 15.2759 29.6619 14.432 28.818C13.5881 27.9741 12.4435 27.5 11.25 27.5ZM27 27.5C25.8065 27.5 24.6619 27.9741 23.818 28.818C22.9741 29.6619 22.5 30.8065 22.5 32C22.5 33.1935 22.9741 34.3381 23.818 35.182C24.6619 36.0259 25.8065 36.5 27 36.5C28.1935 36.5 29.3381 36.0259 30.182 35.182C31.0259 34.3381 31.5 33.1935 31.5 32C31.5 30.8065 31.0259 29.6619 30.182 28.818C29.3381 27.9741 28.1935 27.5 27 27.5ZM11.25 29.75C11.8467 29.75 12.419 29.9871 12.841 30.409C13.2629 30.831 13.5 31.4033 13.5 32C13.5 32.5967 13.2629 33.169 12.841 33.591C12.419 34.0129 11.8467 34.25 11.25 34.25C10.6533 34.25 10.081 34.0129 9.65901 33.591C9.23705 33.169 9 32.5967 9 32C9 31.4033 9.23705 30.831 9.65901 30.409C10.081 29.9871 10.6533 29.75 11.25 29.75ZM27 29.75C27.5967 29.75 28.169 29.9871 28.591 30.409C29.0129 30.831 29.25 31.4033 29.25 32C29.25 32.5967 29.0129 33.169 28.591 33.591C28.169 34.0129 27.5967 34.25 27 34.25C26.4033 34.25 25.831 34.0129 25.409 33.591C24.9871 33.169 24.75 32.5967 24.75 32C24.75 31.4033 24.9871 30.831 25.409 30.409C25.831 29.9871 26.4033 29.75 27 29.75Z" fill="white"/>
  </g>
  <defs>
    <clipPath id="clip0_593_7326">
      <rect width="36" height="36" fill="#f87005" transform="translate(0 0.5)"/>
    </clipPath>
  </defs>
</svg>
