<svg width="332" height="709" viewBox="0 0 332 709" fill="none" xmlns="http://www.w3.org/2000/svg">
<path d="M333 326C333 344.354 333 362.708 332.634 381.691C332.512 384.546 332.756 386.773 333 389C333 389.444 333 389.889 332.655 390.675C331.207 399.049 330.172 407.092 328.984 415.112C327.49 425.195 326.164 435.317 324.217 445.316C322.548 453.885 320.221 462.335 317.978 470.783C315.309 480.834 312.891 490.989 309.503 500.802C305.492 512.42 301.131 523.989 295.902 535.1C286.913 554.204 277.42 573.089 267.556 591.757C263.096 600.197 257.526 608.106 251.948 615.888C242.839 628.596 233.841 641.446 223.83 653.427C210.378 669.525 195.828 684.678 179.991 698.521C175.64 702.324 171.329 706.172 167 710C166.556 710 166.111 710 165.245 709.671C158.629 703.809 152.117 698.588 146.311 692.675C135.175 681.334 124.018 669.964 113.66 657.925C103.767 646.428 94.4111 634.395 85.6833 621.989C77.0954 609.782 68.9213 597.178 61.7818 584.085C52.5502 567.155 43.913 549.836 36.1809 532.176C30.3617 518.885 25.8052 504.96 21.7071 491.017C16.5949 473.623 11.4774 456.11 8.29836 438.302C4.85072 418.99 1.42738 399.512 1.90621 379.684C1.94353 378.139 0.666276 376.562 1.01328e-06 375C1.01328e-06 374.556 9.83477e-07 374.111 0.340041 373.21C0.45339 371.502 0.226699 370.251 5.06639e-06 369C1.06639e-06 361.646 9.83477e-07 354.292 0.373095 346.299C0.497459 343.107 0.24873 340.553 0 338C1e-06 337.25 9.83477e-07 336.5 0.369675 335.211C1.15957 331.441 1.72998 328.22 1.96792 324.975C2.4262 318.725 2.30601 312.41 3.13414 306.216C4.44878 296.383 6.15952 286.593 8.04059 276.85C10.5318 263.946 12.8312 250.969 16.1721 238.277C19.4634 225.772 23.297 213.323 28.0606 201.312C36.2185 180.744 44.1795 159.966 54.2945 140.344C63.7875 121.929 75.7074 104.731 87.0234 87.2985C99.9159 67.4374 115.56 49.7015 131.976 32.7525C143.083 21.285 155.287 10.8801 167 0C167.444 0 167.889 -5.96046e-08 168.774 0.328543C179 9.45765 189.264 17.7894 198.442 27.1829C208.838 37.824 218.73 49.044 227.986 60.6918C239.102 74.6801 250.063 88.905 259.708 103.916C269.227 118.73 277.698 134.324 285.374 150.183C292.836 165.6 298.898 181.711 305.228 197.654C312.769 216.647 318.831 236.102 322.159 256.334C325.037 273.828 327.981 291.311 330.942 308.791C331.521 312.212 332.309 315.598 333 319C333 319.444 333 319.889 332.649 320.804C332.532 322.85 332.766 324.425 333 326Z" fill="#E05515"/>
</svg>
