<svg width="33" height="33" viewBox="0 0 33 33" fill="none" xmlns="http://www.w3.org/2000/svg">
<g id="Icon" clip-path="url(#clip0_194_8371)">
<path id="Vector" d="M16.6035 0.234375C14.3952 0.234375 12.3223 0.651041 10.3848 1.48438C8.42643 2.31771 6.72331 3.45833 5.27539 4.90625C3.82747 6.35417 2.68685 8.05729 1.85352 10.0156C1.02018 11.9531 0.603516 14.026 0.603516 16.2344C0.603516 18.4427 1.02018 20.5156 1.85352 22.4531C2.68685 24.4115 3.82747 26.1146 5.27539 27.5625C6.72331 29.0104 8.42643 30.151 10.3848 30.9844C12.3223 31.8177 14.3952 32.2344 16.6035 32.2344C18.8118 32.2344 20.8848 31.8177 22.8223 30.9844C24.7806 30.151 26.4837 29.0104 27.9316 27.5625C29.3796 26.1146 30.5202 24.4115 31.3535 22.4531C32.1868 20.5156 32.6035 18.4427 32.6035 16.2344C32.6035 14.026 32.1868 11.9531 31.3535 10.0156C30.5202 8.05729 29.3796 6.35417 27.9316 4.90625C26.4837 3.45833 24.7806 2.31771 22.8223 1.48438C20.8848 0.651041 18.8118 0.234375 16.6035 0.234375ZM16.6035 30.2344C14.666 30.2344 12.8535 29.8698 11.166 29.1406C9.45768 28.3906 7.97331 27.3854 6.71289 26.125C5.45247 24.8646 4.44727 23.3802 3.69727 21.6719C2.9681 19.9844 2.60352 18.1719 2.60352 16.2344C2.60352 14.2969 2.9681 12.4844 3.69727 10.7969C4.44727 9.08854 5.45247 7.60417 6.71289 6.34375C7.97331 5.08333 9.45768 4.07812 11.166 3.32812C12.8535 2.59896 14.666 2.23438 16.6035 2.23438C18.541 2.23438 20.3535 2.59896 22.041 3.32812C23.7493 4.07812 25.2337 5.08333 26.4941 6.34375C27.7546 7.60417 28.7598 9.08854 29.5098 10.7969C30.2389 12.4844 30.6035 14.2969 30.6035 16.2344C30.6035 18.1719 30.2389 19.9844 29.5098 21.6719C28.7598 23.3802 27.7546 24.8646 26.4941 26.125C25.2337 27.3854 23.7493 28.3906 22.041 29.1406C20.3535 29.8698 18.541 30.2344 16.6035 30.2344ZM13.416 11.0156C13.3327 10.9323 13.2493 10.8646 13.166 10.8125C13.0827 10.7604 13.0098 10.7135 12.9473 10.6719C12.9264 10.6719 12.916 10.6719 12.916 10.6719C12.8118 10.6094 12.7285 10.5625 12.666 10.5312C12.6035 10.5 12.5723 10.4844 12.5723 10.4844V10.5156C12.4056 10.4531 12.2389 10.401 12.0723 10.3594C11.9056 10.3177 11.7285 10.2969 11.541 10.2969C10.7285 10.2969 10.0358 10.5938 9.46289 11.1875C8.88997 11.7812 8.60352 12.5052 8.60352 13.3594C8.60352 14.1927 8.88997 14.9115 9.46289 15.5156C10.0358 16.1198 10.7285 16.4219 11.541 16.4219C11.8118 16.4219 12.0671 16.3854 12.3066 16.3125C12.5462 16.2396 12.7702 16.1406 12.9785 16.0156C12.8952 16.8281 12.5879 17.8021 12.0566 18.9375C11.5254 20.0729 10.4993 21.2448 8.97852 22.4531C8.77018 22.6406 8.65039 22.8698 8.61914 23.1406C8.58789 23.4115 8.6556 23.6615 8.82227 23.8906C8.9056 24.0156 9.01497 24.1094 9.15039 24.1719C9.28581 24.2344 9.42643 24.2656 9.57227 24.2656C9.67643 24.2656 9.7806 24.25 9.88477 24.2188C9.98893 24.1875 10.0827 24.1302 10.166 24.0469C12.0202 22.5677 13.265 21.1042 13.9004 19.6562C14.5358 18.2083 14.8743 16.974 14.916 15.9531C15.041 14.6406 14.9473 13.6146 14.6348 12.875C14.3223 12.1354 13.9889 11.5781 13.6348 11.2031C13.5931 11.1823 13.5566 11.151 13.5254 11.1094C13.4941 11.0677 13.4577 11.0365 13.416 11.0156ZM23.1035 11.0156C23.0202 10.9323 22.9421 10.8646 22.8691 10.8125C22.7962 10.7604 22.7181 10.7135 22.6348 10.6719C22.6348 10.6719 22.6296 10.6719 22.6191 10.6719C22.6087 10.6719 22.6035 10.6719 22.6035 10.6719C22.4993 10.6094 22.416 10.5625 22.3535 10.5312C22.291 10.5 22.2598 10.4844 22.2598 10.4844V10.5156C22.1139 10.4531 21.9525 10.401 21.7754 10.3594C21.5983 10.3177 21.416 10.2969 21.2285 10.2969C20.416 10.2969 19.7233 10.5938 19.1504 11.1875C18.5775 11.7812 18.291 12.5052 18.291 13.3594C18.291 14.1927 18.5775 14.9115 19.1504 15.5156C19.7233 16.1198 20.416 16.4219 21.2285 16.4219C21.4993 16.4219 21.7546 16.3854 21.9941 16.3125C22.2337 16.2396 22.4577 16.1406 22.666 16.0156C22.6035 16.8281 22.3014 17.8021 21.7598 18.9375C21.2181 20.0729 20.1973 21.2448 18.6973 22.4531C18.4681 22.6406 18.3379 22.8698 18.3066 23.1406C18.2754 23.4115 18.3431 23.6615 18.5098 23.8906C18.6139 24.0156 18.7337 24.1094 18.8691 24.1719C19.0046 24.2344 19.1452 24.2656 19.291 24.2656C19.3952 24.2656 19.4941 24.25 19.5879 24.2188C19.6816 24.1875 19.7806 24.1302 19.8848 24.0469C21.7389 22.5677 22.9785 21.1042 23.6035 19.6562C24.2285 18.2083 24.5723 16.974 24.6348 15.9531C24.7389 14.6406 24.6348 13.6146 24.3223 12.875C24.0098 12.1354 23.6764 11.5781 23.3223 11.2031C23.2806 11.1823 23.2441 11.151 23.2129 11.1094C23.1816 11.0677 23.1452 11.0365 23.1035 11.0156Z" fill="black"/>
</g>
<defs>
<clipPath id="clip0_194_8371">
<rect width="32" height="32" fill="white" transform="matrix(1 0 0 -1 0.603516 32.2344)"/>
</clipPath>
</defs>
</svg>
