<svg width="60" height="61" viewBox="0 0 60 61" fill="none" xmlns="http://www.w3.org/2000/svg">
<path id="Vector" d="M38.2 31.8258C37.9333 31.8258 37.7333 31.8924 37.6 32.0258C37.4667 32.1591 37.4 32.3591 37.4 32.6258C37.4 32.8924 37.4667 33.0924 37.6 33.2258C37.7333 33.3591 37.9333 33.4258 38.2 33.4258H41.2C41.6 33.4258 41.9 33.3258 42.1 33.1258C42.3 32.9258 42.4 32.6258 42.4 32.2258V30.2258H44V32.6258C44 32.8924 44.1 33.0924 44.3 33.2258C44.5 33.3591 44.7333 33.4258 45 33.4258C45.2667 33.4258 45.4667 33.3591 45.6 33.2258C45.7333 33.0924 45.8 32.8924 45.8 32.6258V29.6258C45.8 29.2258 45.7 28.9258 45.5 28.7258C45.3 28.5258 45 28.4258 44.6 28.4258H42.4V26.8258H45C45.2667 26.8258 45.4667 26.7258 45.6 26.5258C45.7333 26.3258 45.8 26.1258 45.8 25.9258C45.8 25.7258 45.7333 25.5258 45.6 25.3258C45.4667 25.1258 45.2667 25.0258 45 25.0258H42C41.6 25.0258 41.3 25.1591 41.1 25.4258C40.9 25.6924 40.8 25.9591 40.8 26.2258V28.4258H39.2V25.8258C39.2 25.6924 39.1 25.5258 38.9 25.3258C38.7 25.1258 38.4667 25.0258 38.2 25.0258C37.9333 25.0258 37.7333 25.1258 37.6 25.3258C37.4667 25.5258 37.4 25.6924 37.4 25.8258V28.8258C37.4 29.2258 37.5333 29.5591 37.8 29.8258C38.0667 30.0924 38.3333 30.2258 38.6 30.2258H40.8V31.8258H38.2ZM57.6 37.6258L52.6 37.8258L56.6 32.6258C57.1333 31.9591 57.4333 31.1924 57.5 30.3258C57.5667 29.4591 57.3333 28.6924 56.8 28.0258L51.8 20.0258C52.2 19.6258 52.4 19.2258 52.4 18.8258V17.4258C52.4 16.8924 52.1333 16.4258 51.6 16.0258C52.6667 15.0924 54.0667 14.5591 55.8 14.4258C56.3333 14.2924 56.6667 13.9258 56.8 13.3258C56.9333 12.7258 56.7333 12.2924 56.2 12.0258C54.0667 11.0924 51.8667 10.8258 49.6 11.2258C49.0667 8.69245 46.7333 5.22578 42.6 0.825779C42.3333 0.559113 42 0.425781 41.6 0.425781C41.2 0.425781 40.8667 0.559113 40.6 0.825779C36.4667 5.22578 34.1333 8.69245 33.6 11.2258C31.4667 10.8258 29.2667 11.0924 27 12.0258C26.4667 12.2924 26.2333 12.7258 26.3 13.3258C26.3667 13.9258 26.7333 14.2924 27.4 14.4258C29.1333 14.5591 30.5333 15.0924 31.6 16.0258C31.0667 16.4258 30.8 16.8924 30.8 17.4258V18.8258C30.8 19.2258 31 19.6258 31.4 20.0258L30.4 21.6258C29.4667 21.0924 28.5333 20.6258 27.6 20.2258C25.8667 19.5591 24.1333 19.0258 22.4 18.6258L19.2 18.0258L19.4 17.4258C19.6667 16.6258 19.5667 15.8258 19.1 15.0258C18.6333 14.2258 18 13.6924 17.2 13.4258C16.2667 13.1591 15.4 13.2924 14.6 13.8258C14.2 13.0258 13.5333 12.4924 12.6 12.2258C11.8 11.9591 11 12.0591 10.2 12.5258C9.4 12.9924 8.86667 13.6258 8.6 14.4258L8.2 15.6258L1 14.0258C0.866667 14.0258 0.666667 14.0924 0.4 14.2258C0.133333 14.3591 0 14.5591 0 14.8258C0 15.0924 0.0666667 15.3258 0.2 15.5258C0.333333 15.7258 0.466667 15.8258 0.6 15.8258L7.8 17.4258L5.2 26.8258L1 26.0258C0.733333 26.0258 0.5 26.0924 0.3 26.2258C0.1 26.3591 0 26.5591 0 26.8258C0 27.0924 0.0666667 27.3258 0.2 27.5258C0.333333 27.7258 0.533333 27.8258 0.8 27.8258L4.6 28.6258C4.46667 29.4258 4.6 30.1924 5 30.9258C5.4 31.6591 6.06667 32.0924 7 32.2258C7.8 32.4924 8.6 32.4258 9.4 32.0258C9.93333 32.8258 10.6 33.3591 11.4 33.6258C12.3333 33.8924 13.1667 33.7924 13.9 33.3258C14.6333 32.8591 15.1333 32.2258 15.4 31.4258L15.6 30.4258L19.6 31.2258C19.7333 31.2258 20 31.4258 20.4 31.8258L22.8 34.4258C20.9333 34.9591 19.2 35.6258 17.6 36.4258L14.6 38.0258L14.4 37.4258C14.1333 36.6258 13.5667 36.0591 12.7 35.7258C11.8333 35.3924 11 35.4258 10.2 35.8258C9.4 36.2258 8.8 36.8258 8.4 37.6258C7.6 37.3591 6.76667 37.3924 5.9 37.7258C5.03333 38.0591 4.43333 38.6591 4.1 39.5258C3.76667 40.3924 3.8 41.2258 4.2 42.0258L4.8 43.2258L0.4 45.2258C0.266667 45.3591 0.166667 45.5591 0.1 45.8258C0.0333333 46.0924 0.0333333 46.3258 0.1 46.5258C0.166667 46.7258 0.333333 46.8591 0.6 46.9258C0.866667 46.9924 1.06667 46.9591 1.2 46.8258L5.4 44.8258L6.4 46.8258C6.4 47.0924 6.53333 47.2591 6.8 47.3258C7.06667 47.3924 7.3 47.3924 7.5 47.3258C7.7 47.2591 7.83333 47.0924 7.9 46.8258C7.96667 46.5591 8 46.3591 8 46.2258L5.8 41.2258C5.66667 40.8258 5.66667 40.4591 5.8 40.1258C5.93333 39.7924 6.2 39.5258 6.6 39.3258C7 39.1258 7.36667 39.1258 7.7 39.3258C8.03333 39.5258 8.33333 39.7591 8.6 40.0258L14.2 53.4258C14.3333 53.6924 14.3333 54.0258 14.2 54.4258C14.0667 54.8258 13.8 55.0924 13.4 55.2258C13.1333 55.3591 12.8 55.3591 12.4 55.2258C12 55.0924 11.7333 54.8258 11.6 54.4258L9.6 49.8258C9.46667 49.6924 9.3 49.5591 9.1 49.4258C8.9 49.2924 8.66667 49.2924 8.4 49.4258C8.13333 49.5591 7.96667 49.7258 7.9 49.9258C7.83333 50.1258 7.86667 50.3591 8 50.6258L9.4 53.8258L0.4 58.8258C0.266667 58.9591 0.166667 59.1258 0.1 59.3258C0.0333333 59.5258 0.0666667 59.7591 0.2 60.0258C0.333333 60.2924 0.533333 60.4258 0.8 60.4258L1.4 60.2258L10 55.4258C10.4 56.2258 11 56.7591 11.8 57.0258C12.6 57.2924 13.4 57.2258 14.2 56.8258C15 56.4258 15.6 55.8258 16 55.0258C16.8 55.4258 17.6667 55.4258 18.6 55.0258C19.4 54.6258 19.9667 54.0258 20.3 53.2258C20.6333 52.4258 20.6 51.6258 20.2 50.8258L19.8 50.0258L23.4 48.0258C23.5333 47.8924 23.8 47.8924 24.2 48.0258L35.8 49.8258H37.2C38.4 49.8258 39.6 49.6924 40.8 49.4258L58 42.6258C58.5333 42.4924 59 42.1924 59.4 41.7258C59.8 41.2591 60 40.7258 60 40.1258C60 39.5258 59.7667 38.9591 59.3 38.4258C58.8333 37.8924 58.2667 37.6258 57.6 37.6258ZM50 12.8258C51.2 12.6924 52.4 12.7591 53.6 13.0258C52.2667 13.4258 51.1333 14.0924 50.2 15.0258L49.8 15.4258H45C46.4667 13.9591 48.1333 13.0924 50 12.8258ZM41.6 2.42578C43.6 4.55911 45.1333 6.49245 46.2 8.22578C47.1333 9.55911 47.7333 10.6924 48 11.6258C46.9333 12.0258 45.9333 12.4924 45 13.0258C44.4667 11.9591 43.6667 10.9591 42.6 10.0258C42.3333 9.89245 42.0333 9.82578 41.7 9.82578C41.3667 9.82578 41.0667 9.89245 40.8 10.0258C39.7333 10.9591 38.9333 12.0258 38.4 13.2258C37.4667 12.5591 36.4667 12.0258 35.4 11.6258C35.5333 10.6924 36.0667 9.55911 37 8.22578C38.0667 6.49245 39.6 4.55911 41.6 2.42578ZM43.6 14.4258C43.3333 14.6924 43.0667 15.0258 42.8 15.4258H40.4L39.8 14.4258C40.2 13.3591 40.8 12.4258 41.6 11.6258C42.5333 12.4258 43.2 13.3591 43.6 14.4258ZM29.6 13.0258C30.8 12.7591 32 12.6924 33.2 12.8258C35.0667 13.0924 36.7333 13.9591 38.2 15.4258H33.4L33 15.0258C32.0667 14.0924 30.9333 13.4258 29.6 13.0258ZM33 20.8258C33 20.9591 33.0667 21.0258 33.2 21.0258H43.4C43.6667 21.0258 43.9 20.9258 44.1 20.7258C44.3 20.5258 44.4 20.2924 44.4 20.0258C44.4 19.7591 44.3 19.5591 44.1 19.4258C43.9 19.2924 43.6667 19.2258 43.4 19.2258H33.2L32.8 19.0258C32.6667 19.0258 32.6 18.9591 32.6 18.8258V17.4258C32.6 17.2924 32.8 17.2258 33.2 17.2258H50C50.4 17.2258 50.6 17.2924 50.6 17.4258V18.8258C50.6 18.9591 50.5333 19.0258 50.4 19.0258L50 19.2258H47.6C47.3333 19.2258 47.1 19.2924 46.9 19.4258C46.7 19.5591 46.6 19.7591 46.6 20.0258C46.6 20.2924 46.7 20.5258 46.9 20.7258C47.1 20.9258 47.3333 21.0258 47.6 21.0258L50.4 20.8258L55.4 29.0258C55.9333 29.8258 55.8667 30.6258 55.2 31.4258L50.4 37.8258L41.6 38.0258L41.8 37.4258C41.8 37.0258 41.6667 36.6591 41.4 36.3258C41.1333 35.9924 40.8 35.7591 40.4 35.6258L29.6 33.4258L28 31.4258C27.3333 30.6258 27.2667 29.8258 27.8 29.0258L33 20.8258ZM9.2 29.6258C9.06667 30.0258 8.83333 30.3258 8.5 30.5258C8.16667 30.7258 7.8 30.7591 7.4 30.6258C7 30.4924 6.7 30.2591 6.5 29.9258C6.3 29.5924 6.26667 29.2258 6.4 28.8258L10.2 14.8258C10.3333 14.4258 10.6 14.1258 11 13.9258C11.4 13.7258 11.8 13.6924 12.2 13.8258C12.4667 13.9591 12.7333 14.1924 13 14.5258C13.2667 14.8591 13.3333 15.2258 13.2 15.6258L9.2 29.6258ZM13.8 30.8258C13.6667 31.2258 13.4 31.5258 13 31.7258C12.6 31.9258 12.2667 31.9591 12 31.8258C11.6 31.8258 11.3 31.6258 11.1 31.2258C10.9 30.8258 10.8667 30.4258 11 30.0258L14.8 16.2258C14.9333 15.8258 15.1667 15.5258 15.5 15.3258C15.8333 15.1258 16.2 15.0924 16.6 15.2258C17 15.2258 17.3 15.4258 17.5 15.8258C17.7 16.2258 17.7333 16.6258 17.6 17.0258L13.8 30.8258ZM21.6 30.6258C21.0667 29.9591 20.5333 29.5591 20 29.4258L16.2 28.8258L18.8 19.6258L22 20.4258C23.7333 20.6924 25.4 21.1591 27 21.8258C27.8 22.2258 28.6 22.6924 29.4 23.2258L26.4 28.0258C25.8667 28.6924 25.6333 29.4591 25.7 30.3258C25.7667 31.1924 26.0667 31.9591 26.6 32.6258L27.4 33.6258C26.4667 33.6258 25.5333 33.7591 24.6 34.0258L21.6 30.6258ZM17.8 53.4258C17.4 53.5591 17.0333 53.5591 16.7 53.4258C16.3667 53.2924 16.0667 53.0258 15.8 52.6258L10.2 39.4258C9.93333 39.0258 9.9 38.6258 10.1 38.2258C10.3 37.8258 10.5667 37.5591 10.9 37.4258C11.2333 37.2924 11.6 37.2924 12 37.4258C12.4 37.5591 12.6667 37.8258 12.8 38.2258L18.6 51.4258C18.7333 51.8258 18.7333 52.2258 18.6 52.6258C18.4667 53.0258 18.2 53.2924 17.8 53.4258ZM57.4 41.0258L40.2 47.8258C39.2667 48.0924 38.2667 48.2258 37.2 48.2258L36 48.0258L24.6 46.2258C23.6667 46.0924 23 46.1591 22.6 46.4258L19.2 48.4258L15.4 39.6258L18.4 38.0258C21.4667 36.5591 24.6667 35.6258 28 35.2258C28.6667 35.2258 29.2 35.2258 29.6 35.2258L40 37.4258C39.8667 38.0924 39.5333 38.5924 39 38.9258C38.4667 39.2591 37.8667 39.4258 37.2 39.4258L29.8 38.6258C29.5333 38.6258 29.3 38.6924 29.1 38.8258C28.9 38.9591 28.8 39.1591 28.8 39.4258C28.8 39.6924 28.8667 39.9258 29 40.1258C29.1333 40.3258 29.3333 40.4258 29.6 40.4258L37 41.0258C38.3333 41.1591 39.5333 40.7591 40.6 39.8258L57.6 39.4258C58 39.4258 58.2 39.6258 58.2 40.0258C58.2 40.4258 57.9333 40.7591 57.4 41.0258Z" fill="#ffffff"/>
</svg>
