<svg width="16" height="12" viewBox="0 0 16 12" fill="none" xmlns="http://www.w3.org/2000/svg">
<g id="Frame 115">
<path id="Vector" d="M12.4627 1.37321L4.98154 8.8544C4.49338 9.34255 4.49338 10.134 4.98154 10.6222C5.4697 11.1103 6.26115 11.1103 6.74931 10.6222L14.2305 3.14097C14.7187 2.65282 14.7187 1.86136 14.2305 1.37321C13.7423 0.885052 12.9509 0.885052 12.4627 1.37321Z" fill="#DB4241"/>
<path id="Vector_2" d="M0.883935 6.54604L4.96182 10.6239C5.44998 11.1121 6.24143 11.1121 6.72959 10.6239C7.21774 10.1358 7.21774 9.34432 6.72959 8.85616L2.6517 4.77828C2.16355 4.29012 1.37209 4.29012 0.883935 4.77828C0.39578 5.26643 0.39578 6.05789 0.883935 6.54604Z" fill="#DB4241"/>
</g>
</svg>
